G04 #@! TF.GenerationSoftware,KiCad,Pcbnew,5.0.1-33cea8e~68~ubuntu16.04.1*
G04 #@! TF.CreationDate,2018-11-05T16:05:36+00:00*
G04 #@! TF.ProjectId,lna,6C6E612E6B696361645F706362000000,rev?*
G04 #@! TF.SameCoordinates,Original*
G04 #@! TF.FileFunction,Soldermask,Top*
G04 #@! TF.FilePolarity,Negative*
%FSLAX46Y46*%
G04 Gerber Fmt 4.6, Leading zero omitted, Abs format (unit mm)*
G04 Created by KiCad (PCBNEW 5.0.1-33cea8e~68~ubuntu16.04.1) date Mon 05 Nov 2018 04:05:36 PM GMT*
%MOMM*%
%LPD*%
G01*
G04 APERTURE LIST*
%ADD10R,0.620000X0.620000*%
%ADD11R,1.750000X0.990000*%
%ADD12R,0.990000X0.610000*%
%ADD13R,0.510000X0.250000*%
%ADD14R,0.250000X0.510000*%
%ADD15R,1.252000X1.252000*%
%ADD16R,0.400000X1.350000*%
%ADD17O,1.000000X1.250000*%
%ADD18R,1.800000X1.900000*%
%ADD19R,1.575000X1.900000*%
%ADD20O,1.000000X1.900000*%
%ADD21R,5.000000X2.300000*%
%ADD22R,5.000000X2.400000*%
%ADD23C,6.300000*%
%ADD24C,0.600000*%
G04 APERTURE END LIST*
D10*
G04 #@! TO.C,C1*
X63690000Y-71440000D03*
X62790000Y-71440000D03*
G04 #@! TD*
G04 #@! TO.C,C2*
X62790000Y-70030000D03*
X63690000Y-70030000D03*
G04 #@! TD*
G04 #@! TO.C,C3*
X65450000Y-74000000D03*
X66350000Y-74000000D03*
G04 #@! TD*
D11*
G04 #@! TO.C,F1*
X69500000Y-72990000D03*
D12*
X71310000Y-74000000D03*
D11*
X69500000Y-75010000D03*
D12*
X67690000Y-74000000D03*
G04 #@! TD*
D13*
G04 #@! TO.C,IC1*
X58645000Y-73490000D03*
X58645000Y-74000000D03*
X58645000Y-74510000D03*
D14*
X59490000Y-75355000D03*
X60000000Y-75355000D03*
X60510000Y-75355000D03*
D13*
X61355000Y-74510000D03*
X61355000Y-74000000D03*
X61355000Y-73490000D03*
D14*
X60510000Y-72645000D03*
X60000000Y-72645000D03*
X59490000Y-72645000D03*
D15*
X60000000Y-74000000D03*
G04 #@! TD*
D16*
G04 #@! TO.C,J1*
X65000000Y-64175000D03*
X64350000Y-64175000D03*
X65650000Y-64175000D03*
X66300000Y-64175000D03*
X63700000Y-64175000D03*
D17*
X62775000Y-64500000D03*
X67225000Y-64500000D03*
D18*
X63850000Y-61500000D03*
X66150000Y-61500000D03*
D19*
X61612500Y-61500000D03*
D20*
X60825000Y-61500000D03*
D19*
X68387500Y-61500000D03*
D20*
X69175000Y-61500000D03*
G04 #@! TD*
D10*
G04 #@! TO.C,L1*
X56490000Y-73600000D03*
X56490000Y-72700000D03*
G04 #@! TD*
G04 #@! TO.C,L2*
X62790000Y-73600000D03*
X62790000Y-72700000D03*
G04 #@! TD*
D21*
G04 #@! TO.C,P1*
X52500000Y-74000000D03*
D22*
X52500000Y-78375000D03*
X52500000Y-69625000D03*
G04 #@! TD*
G04 #@! TO.C,P2*
X77500000Y-78375000D03*
X77500000Y-69625000D03*
D21*
X77500000Y-74000000D03*
G04 #@! TD*
D23*
G04 #@! TO.C,X1*
X53500000Y-63500000D03*
D24*
X53500000Y-61000000D03*
X56000000Y-63500000D03*
X53500000Y-66000000D03*
X51000000Y-63500000D03*
X51700000Y-61700000D03*
X55300000Y-61700000D03*
X51700000Y-65300000D03*
X55300000Y-65300000D03*
G04 #@! TD*
G04 #@! TO.C,X2*
X78300000Y-65300000D03*
X74700000Y-65300000D03*
X78300000Y-61700000D03*
X74700000Y-61700000D03*
X74000000Y-63500000D03*
X76500000Y-66000000D03*
X79000000Y-63500000D03*
X76500000Y-61000000D03*
D23*
X76500000Y-63500000D03*
G04 #@! TD*
M02*
