M48
;DRILL file {KiCad 5.0.1-33cea8e~68~ubuntu16.04.1} date Mon 05 Nov 2018 04:05:49 PM GMT
;FORMAT={-:-/ absolute / inch / decimal}
FMAT,2
INCH,TZ
T1C0.0157
T2C0.0236
T3C0.0256
%
G90
G05
M72
T1
X2.0118Y-2.8268
X2.0157Y-3.0039
X2.0748Y-2.8268
X2.0748Y-3.0039
X2.1378Y-3.0039
X2.1417Y-2.8268
X2.2205Y-2.8268
X2.2205Y-2.9764
X2.3031Y-2.8543
X2.3031Y-2.9724
X2.3386Y-3.0079
X2.3622Y-2.9134
X2.3858Y-3.0079
X2.4213Y-2.8543
X2.4213Y-2.9724
X2.4606Y-2.5906
X2.4646Y-2.9764
X2.4843Y-2.626
X2.5079Y-2.5906
X2.5157Y-2.9764
X2.5472Y-2.5906
X2.5472Y-2.7559
X2.5472Y-2.811
X2.563Y-2.8543
X2.563Y-2.9764
X2.6142Y-2.8543
X2.6142Y-2.9764
X2.6614Y-2.8543
X2.6614Y-2.9764
X2.7126Y-2.8268
X2.7126Y-3.
X2.7362Y-2.8701
X2.7362Y-2.9567
X2.7598Y-2.8268
X2.7598Y-3.
X2.815Y-2.8504
X2.815Y-2.9764
X2.8622Y-2.8504
X2.8622Y-2.9764
X2.9134Y-2.8504
X2.9134Y-2.9764
X2.9764Y-2.8268
X2.9764Y-3.
X3.0433Y-2.8268
X3.0433Y-3.
X3.1063Y-2.8268
X3.1063Y-3.
T2
X2.3947Y-2.435G85X2.3947Y-2.4075
G05
X2.7234Y-2.435G85X2.7234Y-2.4075
G05
T3
X2.4715Y-2.5433G85X2.4715Y-2.5354
G05
X2.6467Y-2.5433G85X2.6467Y-2.5354
G05
T0
M30
