G04 #@! TF.GenerationSoftware,KiCad,Pcbnew,5.0.1-33cea8e~68~ubuntu16.04.1*
G04 #@! TF.CreationDate,2018-11-05T16:05:36+00:00*
G04 #@! TF.ProjectId,lna,6C6E612E6B696361645F706362000000,rev?*
G04 #@! TF.SameCoordinates,Original*
G04 #@! TF.FileFunction,Copper,L1,Top,Signal*
G04 #@! TF.FilePolarity,Positive*
%FSLAX46Y46*%
G04 Gerber Fmt 4.6, Leading zero omitted, Abs format (unit mm)*
G04 Created by KiCad (PCBNEW 5.0.1-33cea8e~68~ubuntu16.04.1) date Mon 05 Nov 2018 04:05:36 PM GMT*
%MOMM*%
%LPD*%
G01*
G04 APERTURE LIST*
G04 #@! TA.AperFunction,SMDPad,CuDef*
%ADD10R,0.620000X0.620000*%
G04 #@! TD*
G04 #@! TA.AperFunction,SMDPad,CuDef*
%ADD11R,1.750000X0.990000*%
G04 #@! TD*
G04 #@! TA.AperFunction,SMDPad,CuDef*
%ADD12R,0.990000X0.610000*%
G04 #@! TD*
G04 #@! TA.AperFunction,SMDPad,CuDef*
%ADD13R,0.510000X0.250000*%
G04 #@! TD*
G04 #@! TA.AperFunction,SMDPad,CuDef*
%ADD14R,0.250000X0.510000*%
G04 #@! TD*
G04 #@! TA.AperFunction,SMDPad,CuDef*
%ADD15R,1.250000X1.250000*%
G04 #@! TD*
G04 #@! TA.AperFunction,SMDPad,CuDef*
%ADD16R,0.400000X1.350000*%
G04 #@! TD*
G04 #@! TA.AperFunction,ComponentPad*
%ADD17O,1.000000X1.250000*%
G04 #@! TD*
G04 #@! TA.AperFunction,SMDPad,CuDef*
%ADD18R,1.800000X1.900000*%
G04 #@! TD*
G04 #@! TA.AperFunction,SMDPad,CuDef*
%ADD19R,1.575000X1.900000*%
G04 #@! TD*
G04 #@! TA.AperFunction,ComponentPad*
%ADD20O,1.000000X1.900000*%
G04 #@! TD*
G04 #@! TA.AperFunction,SMDPad,CuDef*
%ADD21R,5.000000X2.300000*%
G04 #@! TD*
G04 #@! TA.AperFunction,SMDPad,CuDef*
%ADD22R,5.000000X2.400000*%
G04 #@! TD*
G04 #@! TA.AperFunction,ViaPad*
%ADD23C,0.800000*%
G04 #@! TD*
G04 #@! TA.AperFunction,Conductor*
%ADD24C,0.250000*%
G04 #@! TD*
G04 #@! TA.AperFunction,Conductor*
%ADD25C,0.600000*%
G04 #@! TD*
G04 #@! TA.AperFunction,Conductor*
%ADD26C,1.421000*%
G04 #@! TD*
G04 #@! TA.AperFunction,Conductor*
%ADD27C,0.200000*%
G04 #@! TD*
G04 #@! TA.AperFunction,Conductor*
%ADD28C,0.150000*%
G04 #@! TD*
%ADD29C,0.150000*%
G04 APERTURE END LIST*
D10*
G04 #@! TO.P,C1,2*
G04 #@! TO.N,GND*
X63690000Y-71440000D03*
G04 #@! TO.P,C1,1*
G04 #@! TO.N,5v*
X62790000Y-71440000D03*
G04 #@! TD*
G04 #@! TO.P,C2,1*
G04 #@! TO.N,5v*
X62790000Y-70030000D03*
G04 #@! TO.P,C2,2*
G04 #@! TO.N,GND*
X63690000Y-70030000D03*
G04 #@! TD*
G04 #@! TO.P,C3,1*
G04 #@! TO.N,Net-(C3-Pad1)*
X65450000Y-74000000D03*
G04 #@! TO.P,C3,2*
G04 #@! TO.N,Net-(C3-Pad2)*
X66350000Y-74000000D03*
G04 #@! TD*
D11*
G04 #@! TO.P,F1,4*
G04 #@! TO.N,GND*
X69500000Y-72990000D03*
D12*
G04 #@! TO.P,F1,3*
G04 #@! TO.N,Net-(F1-Pad3)*
X71310000Y-74000000D03*
D11*
G04 #@! TO.P,F1,2*
G04 #@! TO.N,GND*
X69500000Y-75010000D03*
D12*
G04 #@! TO.P,F1,1*
G04 #@! TO.N,Net-(C3-Pad2)*
X67690000Y-74000000D03*
G04 #@! TD*
D13*
G04 #@! TO.P,IC1,1*
G04 #@! TO.N,GND*
X58645000Y-73490000D03*
G04 #@! TO.P,IC1,2*
G04 #@! TO.N,Net-(IC1-Pad2)*
X58645000Y-74000000D03*
G04 #@! TO.P,IC1,3*
G04 #@! TO.N,GND*
X58645000Y-74510000D03*
D14*
G04 #@! TO.P,IC1,4*
X59490000Y-75355000D03*
G04 #@! TO.P,IC1,5*
X60000000Y-75355000D03*
G04 #@! TO.P,IC1,6*
X60510000Y-75355000D03*
D13*
G04 #@! TO.P,IC1,7*
X61355000Y-74510000D03*
G04 #@! TO.P,IC1,8*
G04 #@! TO.N,Net-(C3-Pad1)*
X61355000Y-74000000D03*
G04 #@! TO.P,IC1,9*
G04 #@! TO.N,GND*
X61355000Y-73490000D03*
D14*
G04 #@! TO.P,IC1,10*
X60510000Y-72645000D03*
G04 #@! TO.P,IC1,11*
G04 #@! TO.N,Net-(IC1-Pad11)*
X60000000Y-72645000D03*
G04 #@! TO.P,IC1,12*
G04 #@! TO.N,Net-(IC1-Pad12)*
X59490000Y-72645000D03*
D15*
G04 #@! TO.P,IC1,EP*
G04 #@! TO.N,GND*
X60000000Y-74000000D03*
G04 #@! TD*
D16*
G04 #@! TO.P,J1,3*
G04 #@! TO.N,Net-(J1-Pad3)*
X65000000Y-64175000D03*
G04 #@! TO.P,J1,4*
G04 #@! TO.N,Net-(J1-Pad4)*
X64350000Y-64175000D03*
G04 #@! TO.P,J1,2*
G04 #@! TO.N,Net-(J1-Pad2)*
X65650000Y-64175000D03*
G04 #@! TO.P,J1,1*
G04 #@! TO.N,5v*
X66300000Y-64175000D03*
G04 #@! TO.P,J1,5*
G04 #@! TO.N,GND*
X63700000Y-64175000D03*
D17*
G04 #@! TO.P,J1,S*
X62775000Y-64500000D03*
G04 #@! TO.P,J1,*
G04 #@! TO.N,*
X67225000Y-64500000D03*
D18*
X63850000Y-61500000D03*
X66150000Y-61500000D03*
D19*
X61612500Y-61500000D03*
D20*
X60825000Y-61500000D03*
D19*
X68387500Y-61500000D03*
D20*
X69175000Y-61500000D03*
G04 #@! TD*
D10*
G04 #@! TO.P,L1,1*
G04 #@! TO.N,Net-(IC1-Pad2)*
X56490000Y-73600000D03*
G04 #@! TO.P,L1,2*
G04 #@! TO.N,GND*
X56490000Y-72700000D03*
G04 #@! TD*
G04 #@! TO.P,L2,2*
G04 #@! TO.N,Net-(C3-Pad1)*
X62790000Y-73600000D03*
G04 #@! TO.P,L2,1*
G04 #@! TO.N,5v*
X62790000Y-72700000D03*
G04 #@! TD*
D21*
G04 #@! TO.P,P1,1*
G04 #@! TO.N,Net-(IC1-Pad2)*
X52500000Y-74000000D03*
D22*
G04 #@! TO.P,P1,2*
G04 #@! TO.N,GND*
X52500000Y-78375000D03*
X52500000Y-69625000D03*
G04 #@! TD*
G04 #@! TO.P,P2,2*
G04 #@! TO.N,GND*
X77500000Y-78375000D03*
X77500000Y-69625000D03*
D21*
G04 #@! TO.P,P2,1*
G04 #@! TO.N,Net-(F1-Pad3)*
X77500000Y-74000000D03*
G04 #@! TD*
D23*
G04 #@! TO.N,GND*
X60000000Y-74000000D03*
X56400000Y-75600000D03*
X58500000Y-75500000D03*
X58500000Y-72500000D03*
X59400000Y-76400000D03*
X60600000Y-76400000D03*
X61500000Y-75500000D03*
X62600000Y-75600000D03*
X63900000Y-75600000D03*
X65100000Y-75600000D03*
X66400000Y-75600000D03*
X68900000Y-76200000D03*
X70100000Y-76200000D03*
X71500000Y-75600000D03*
X72700000Y-75600000D03*
X74000000Y-75600000D03*
X67600000Y-75600000D03*
X56400000Y-71800000D03*
X61500000Y-72500000D03*
X65100000Y-72500000D03*
X67600000Y-72500000D03*
X66400000Y-72500000D03*
X68900000Y-71800000D03*
X70100000Y-71800000D03*
X71500000Y-72400000D03*
X72700000Y-72400000D03*
X74000000Y-72400000D03*
X64700000Y-70000000D03*
X64700000Y-71400000D03*
X51200000Y-76300000D03*
X52700000Y-76300000D03*
X54300000Y-76300000D03*
X51100000Y-71800000D03*
X52700000Y-71800000D03*
X54400000Y-71800000D03*
X75600000Y-71800000D03*
X77300000Y-71800000D03*
X78900000Y-71800000D03*
X78900000Y-76200000D03*
X77300000Y-76200000D03*
X75600000Y-76200000D03*
X63700000Y-65800000D03*
X64700000Y-65800000D03*
X62500000Y-65800000D03*
X63100000Y-66700000D03*
X69500000Y-72900000D03*
X69500000Y-75100000D03*
G04 #@! TD*
D24*
G04 #@! TO.N,GND*
X59490000Y-73490000D02*
X60000000Y-74000000D01*
X58645000Y-73490000D02*
X59490000Y-73490000D01*
X58645000Y-74510000D02*
X59490000Y-74510000D01*
X59490000Y-74510000D02*
X60000000Y-74000000D01*
X59490000Y-75355000D02*
X59490000Y-74510000D01*
X60000000Y-75355000D02*
X60000000Y-74000000D01*
X60510000Y-75355000D02*
X60510000Y-74510000D01*
X60510000Y-74510000D02*
X60000000Y-74000000D01*
X61355000Y-74510000D02*
X60510000Y-74510000D01*
X61355000Y-73490000D02*
X60510000Y-73490000D01*
X60510000Y-73490000D02*
X60000000Y-74000000D01*
X60510000Y-72645000D02*
X60510000Y-73490000D01*
G04 #@! TO.N,5v*
X62790000Y-72700000D02*
X62790000Y-71440000D01*
X62790000Y-71440000D02*
X62790000Y-70030000D01*
X66300000Y-64175000D02*
X66300000Y-65630000D01*
X62790000Y-69140000D02*
X62790000Y-70030000D01*
X66300000Y-65630000D02*
X62790000Y-69140000D01*
D25*
G04 #@! TO.N,Net-(C3-Pad1)*
X65450000Y-74000000D02*
X64490000Y-74000000D01*
D24*
X61355000Y-74000000D02*
X62260000Y-74000000D01*
D26*
X63850000Y-74000000D02*
X62470501Y-74000000D01*
D25*
X62260000Y-74000000D02*
X63850000Y-74000000D01*
D26*
X63850000Y-74000000D02*
X64490000Y-74000000D01*
D25*
G04 #@! TO.N,Net-(C3-Pad2)*
X67690000Y-74000000D02*
X66350000Y-74000000D01*
D26*
G04 #@! TO.N,Net-(F1-Pad3)*
X77500000Y-74000000D02*
X72500000Y-74000000D01*
D27*
X71310000Y-74000000D02*
X71600000Y-74000000D01*
D25*
X71310000Y-74000000D02*
X72500000Y-74000000D01*
D26*
G04 #@! TO.N,Net-(IC1-Pad2)*
X52500000Y-74000000D02*
X57560000Y-74000000D01*
D24*
X58645000Y-74000000D02*
X57560000Y-74000000D01*
G04 #@! TD*
D27*
G04 #@! TO.N,Net-(F1-Pad3)*
G36*
X72550000Y-74610000D02*
X72242146Y-74610000D01*
X71900000Y-74259301D01*
X71900000Y-73740699D01*
X72242146Y-73390000D01*
X72550000Y-73390000D01*
X72550000Y-74610000D01*
X72550000Y-74610000D01*
G37*
X72550000Y-74610000D02*
X72242146Y-74610000D01*
X71900000Y-74259301D01*
X71900000Y-73740699D01*
X72242146Y-73390000D01*
X72550000Y-73390000D01*
X72550000Y-74610000D01*
D28*
G04 #@! TO.N,Net-(IC1-Pad2)*
X57595000Y-73365000D02*
X57855250Y-73365000D01*
X57595000Y-73507500D02*
X57976012Y-73507500D01*
X57595000Y-73650000D02*
X58096775Y-73650000D01*
X57595000Y-73792500D02*
X58217538Y-73792500D01*
X57595000Y-73935000D02*
X58315000Y-73935000D01*
X57595000Y-74077500D02*
X58315000Y-74077500D01*
X57595000Y-74220000D02*
X58206945Y-74220000D01*
X57595000Y-74362500D02*
X58086183Y-74362500D01*
X57595000Y-74505000D02*
X57965420Y-74505000D01*
X58315000Y-73907505D02*
X58315000Y-74092495D01*
X58172500Y-73739355D02*
X58172500Y-74260645D01*
X58030000Y-73571205D02*
X58030000Y-74428795D01*
X57887500Y-73403055D02*
X57887500Y-74596945D01*
X57745000Y-73365000D02*
X57745000Y-74635000D01*
X57602500Y-73365000D02*
X57602500Y-74635000D01*
D29*
X58315000Y-73907505D02*
X58315000Y-74092495D01*
X57855250Y-74635000D01*
X57595000Y-74635000D01*
X57595000Y-73365000D01*
X57855250Y-73365000D01*
X58315000Y-73907505D01*
D28*
G04 #@! TO.N,Net-(C3-Pad1)*
X62144750Y-73365000D02*
X62405000Y-73365000D01*
X62023987Y-73507500D02*
X62405000Y-73507500D01*
X61903224Y-73650000D02*
X62405000Y-73650000D01*
X61782461Y-73792500D02*
X62405000Y-73792500D01*
X61685000Y-73935000D02*
X62405000Y-73935000D01*
X61685000Y-74077500D02*
X62405000Y-74077500D01*
X61793056Y-74220000D02*
X62405000Y-74220000D01*
X61913818Y-74362500D02*
X62405000Y-74362500D01*
X62034581Y-74505000D02*
X62405000Y-74505000D01*
X62405000Y-73365000D02*
X62405000Y-74635000D01*
X62262500Y-73365000D02*
X62262500Y-74635000D01*
X62120000Y-73394205D02*
X62120000Y-74605795D01*
X61977500Y-73562355D02*
X61977500Y-74437645D01*
X61835000Y-73730505D02*
X61835000Y-74269495D01*
X61692500Y-73898655D02*
X61692500Y-74101345D01*
D29*
X62405000Y-74635000D02*
X62144750Y-74635000D01*
X61685000Y-74092495D01*
X61685000Y-73907505D01*
X62144750Y-73365000D01*
X62405000Y-73365000D01*
X62405000Y-74635000D01*
D28*
X64505000Y-73365739D02*
X64767262Y-73365739D01*
X64505000Y-73508239D02*
X64899387Y-73508239D01*
X64505000Y-73650739D02*
X65031512Y-73650739D01*
X64505000Y-73793239D02*
X65163638Y-73793239D01*
X64505000Y-73935739D02*
X65225000Y-73935739D01*
X64505000Y-74078239D02*
X65225000Y-74078239D01*
X64505000Y-74220739D02*
X65150935Y-74220739D01*
X64505000Y-74363239D02*
X65019171Y-74363239D01*
X64505000Y-74505739D02*
X64887407Y-74505739D01*
X65225000Y-73859419D02*
X65225000Y-74140639D01*
X65082500Y-73705729D02*
X65082500Y-74294749D01*
X64940000Y-73552040D02*
X64940000Y-74448860D01*
X64797500Y-73398351D02*
X64797500Y-74602971D01*
X64655000Y-73365739D02*
X64655000Y-74635739D01*
X64512500Y-73365739D02*
X64512500Y-74635739D01*
D29*
X65225000Y-73859419D02*
X65225000Y-74140639D01*
X64767201Y-74635739D01*
X64505000Y-74635739D01*
X64505000Y-73365739D01*
X64767262Y-73365739D01*
X65225000Y-73859419D01*
D27*
G04 #@! TO.N,GND*
G36*
X60378395Y-60381607D02*
X60256579Y-60481578D01*
X60156608Y-60603394D01*
X60082322Y-60742372D01*
X60036577Y-60893173D01*
X60025000Y-61010707D01*
X60025000Y-61989292D01*
X60036576Y-62106826D01*
X60082321Y-62257627D01*
X60156607Y-62396605D01*
X60256578Y-62518422D01*
X60378394Y-62618393D01*
X60517372Y-62692679D01*
X60668173Y-62738424D01*
X60825000Y-62753870D01*
X60849561Y-62751451D01*
X62400000Y-62751451D01*
X62458810Y-62745659D01*
X62515360Y-62728504D01*
X62567477Y-62700647D01*
X62613158Y-62663158D01*
X62650647Y-62617477D01*
X62675000Y-62571916D01*
X62699353Y-62617477D01*
X62736842Y-62663158D01*
X62782523Y-62700647D01*
X62834640Y-62728504D01*
X62891190Y-62745659D01*
X62950000Y-62751451D01*
X64750000Y-62751451D01*
X64808810Y-62745659D01*
X64865360Y-62728504D01*
X64917477Y-62700647D01*
X64963158Y-62663158D01*
X65000000Y-62618265D01*
X65036842Y-62663158D01*
X65082523Y-62700647D01*
X65134640Y-62728504D01*
X65191190Y-62745659D01*
X65250000Y-62751451D01*
X67050000Y-62751451D01*
X67108810Y-62745659D01*
X67165360Y-62728504D01*
X67217477Y-62700647D01*
X67263158Y-62663158D01*
X67300647Y-62617477D01*
X67325000Y-62571916D01*
X67349353Y-62617477D01*
X67386842Y-62663158D01*
X67432523Y-62700647D01*
X67484640Y-62728504D01*
X67541190Y-62745659D01*
X67600000Y-62751451D01*
X69150439Y-62751451D01*
X69175000Y-62753870D01*
X69331826Y-62738424D01*
X69482627Y-62692679D01*
X69621605Y-62618393D01*
X69743422Y-62518422D01*
X69843393Y-62396606D01*
X69917679Y-62257628D01*
X69963424Y-62106827D01*
X69975000Y-61989293D01*
X69975000Y-61010707D01*
X69963424Y-60893173D01*
X69917679Y-60742372D01*
X69843393Y-60603394D01*
X69743422Y-60481578D01*
X69621606Y-60381607D01*
X69562474Y-60350000D01*
X75220145Y-60350000D01*
X74889496Y-60486959D01*
X74332626Y-60859048D01*
X73859048Y-61332626D01*
X73486959Y-61889496D01*
X73230660Y-62508257D01*
X73100000Y-63165129D01*
X73100000Y-63834871D01*
X73230660Y-64491743D01*
X73486959Y-65110504D01*
X73859048Y-65667374D01*
X74332626Y-66140952D01*
X74889496Y-66513041D01*
X75508257Y-66769340D01*
X76165129Y-66900000D01*
X76834871Y-66900000D01*
X77491743Y-66769340D01*
X78110504Y-66513041D01*
X78667374Y-66140952D01*
X79140952Y-65667374D01*
X79513041Y-65110504D01*
X79650000Y-64779855D01*
X79650001Y-72548549D01*
X75000000Y-72548549D01*
X74941190Y-72554341D01*
X74884640Y-72571496D01*
X74832523Y-72599353D01*
X74786842Y-72636842D01*
X74749353Y-72682523D01*
X74721496Y-72734640D01*
X74704341Y-72791190D01*
X74698549Y-72850000D01*
X74698549Y-72989500D01*
X72450360Y-72989500D01*
X72445283Y-72990000D01*
X72200000Y-72990000D01*
X72081782Y-73014274D01*
X71985265Y-73080503D01*
X71815418Y-73254596D01*
X71782012Y-73282012D01*
X71746738Y-73324993D01*
X71679854Y-73393549D01*
X70815000Y-73393549D01*
X70756190Y-73399341D01*
X70699640Y-73416496D01*
X70647523Y-73444353D01*
X70601842Y-73481842D01*
X70564353Y-73527523D01*
X70536496Y-73579640D01*
X70519341Y-73636190D01*
X70513549Y-73695000D01*
X70513549Y-74305000D01*
X70519341Y-74363810D01*
X70536496Y-74420360D01*
X70564353Y-74472477D01*
X70601842Y-74518158D01*
X70647523Y-74555647D01*
X70699640Y-74583504D01*
X70756190Y-74600659D01*
X70815000Y-74606451D01*
X71679854Y-74606451D01*
X71746738Y-74675007D01*
X71782012Y-74717988D01*
X71815418Y-74745404D01*
X71985265Y-74919497D01*
X72085195Y-74987164D01*
X72200000Y-75010000D01*
X72445283Y-75010000D01*
X72450360Y-75010500D01*
X74698549Y-75010500D01*
X74698549Y-75150000D01*
X74704341Y-75208810D01*
X74721496Y-75265360D01*
X74749353Y-75317477D01*
X74786842Y-75363158D01*
X74832523Y-75400647D01*
X74884640Y-75428504D01*
X74941190Y-75445659D01*
X75000000Y-75451451D01*
X79650001Y-75451451D01*
X79650001Y-79650000D01*
X50350000Y-79650000D01*
X50350000Y-75451451D01*
X55000000Y-75451451D01*
X55058810Y-75445659D01*
X55115360Y-75428504D01*
X55167477Y-75400647D01*
X55213158Y-75363158D01*
X55250647Y-75317477D01*
X55278504Y-75265360D01*
X55295659Y-75208810D01*
X55301451Y-75150000D01*
X55301451Y-75010500D01*
X57609640Y-75010500D01*
X57614717Y-75010000D01*
X57890000Y-75010000D01*
X58027223Y-74976777D01*
X58118869Y-74903957D01*
X58273002Y-74722080D01*
X58277988Y-74717988D01*
X58324523Y-74661285D01*
X58523535Y-74426451D01*
X58900000Y-74426451D01*
X58958810Y-74420659D01*
X59015360Y-74403504D01*
X59067477Y-74375647D01*
X59113158Y-74338158D01*
X59150647Y-74292477D01*
X59178504Y-74240360D01*
X59195659Y-74183810D01*
X59201451Y-74125000D01*
X59201451Y-73875000D01*
X60798549Y-73875000D01*
X60798549Y-74125000D01*
X60804341Y-74183810D01*
X60821496Y-74240360D01*
X60849353Y-74292477D01*
X60886842Y-74338158D01*
X60932523Y-74375647D01*
X60984640Y-74403504D01*
X61041190Y-74420659D01*
X61100000Y-74426451D01*
X61476465Y-74426451D01*
X61881131Y-74903957D01*
X61995195Y-74987164D01*
X62110000Y-75010000D01*
X62415784Y-75010000D01*
X62420861Y-75010500D01*
X64428798Y-75010500D01*
X64430000Y-75010739D01*
X64800000Y-75010739D01*
X64925558Y-74983200D01*
X65020267Y-74914411D01*
X65182707Y-74738736D01*
X65207988Y-74717988D01*
X65256107Y-74659355D01*
X65300402Y-74611451D01*
X65760000Y-74611451D01*
X65818810Y-74605659D01*
X65875360Y-74588504D01*
X65900000Y-74575334D01*
X65924640Y-74588504D01*
X65981190Y-74605659D01*
X66040000Y-74611451D01*
X66660000Y-74611451D01*
X66718810Y-74605659D01*
X66737464Y-74600000D01*
X67134018Y-74600000D01*
X67136190Y-74600659D01*
X67195000Y-74606451D01*
X68185000Y-74606451D01*
X68243810Y-74600659D01*
X68300360Y-74583504D01*
X68352477Y-74555647D01*
X68398158Y-74518158D01*
X68435647Y-74472477D01*
X68463504Y-74420360D01*
X68480659Y-74363810D01*
X68486451Y-74305000D01*
X68486451Y-73695000D01*
X68480659Y-73636190D01*
X68463504Y-73579640D01*
X68435647Y-73527523D01*
X68398158Y-73481842D01*
X68352477Y-73444353D01*
X68300360Y-73416496D01*
X68243810Y-73399341D01*
X68185000Y-73393549D01*
X67195000Y-73393549D01*
X67136190Y-73399341D01*
X67134018Y-73400000D01*
X66737464Y-73400000D01*
X66718810Y-73394341D01*
X66660000Y-73388549D01*
X66040000Y-73388549D01*
X65981190Y-73394341D01*
X65924640Y-73411496D01*
X65900000Y-73424666D01*
X65875360Y-73411496D01*
X65818810Y-73394341D01*
X65760000Y-73388549D01*
X65299801Y-73388549D01*
X65261677Y-73347432D01*
X65207988Y-73282012D01*
X65178842Y-73258092D01*
X65019989Y-73086766D01*
X64914805Y-73013575D01*
X64800000Y-72990739D01*
X64552220Y-72990739D01*
X64539640Y-72989500D01*
X63401451Y-72989500D01*
X63401451Y-72390000D01*
X63395659Y-72331190D01*
X63378504Y-72274640D01*
X63350647Y-72222523D01*
X63313158Y-72176842D01*
X63267477Y-72139353D01*
X63215360Y-72111496D01*
X63215000Y-72111387D01*
X63215000Y-72028613D01*
X63215360Y-72028504D01*
X63267477Y-72000647D01*
X63313158Y-71963158D01*
X63350647Y-71917477D01*
X63378504Y-71865360D01*
X63395659Y-71808810D01*
X63401451Y-71750000D01*
X63401451Y-71130000D01*
X63395659Y-71071190D01*
X63378504Y-71014640D01*
X63350647Y-70962523D01*
X63313158Y-70916842D01*
X63267477Y-70879353D01*
X63215360Y-70851496D01*
X63215000Y-70851387D01*
X63215000Y-70618613D01*
X63215360Y-70618504D01*
X63267477Y-70590647D01*
X63313158Y-70553158D01*
X63350647Y-70507477D01*
X63378504Y-70455360D01*
X63395659Y-70398810D01*
X63401451Y-70340000D01*
X63401451Y-69720000D01*
X63395659Y-69661190D01*
X63378504Y-69604640D01*
X63350647Y-69552523D01*
X63313158Y-69506842D01*
X63267477Y-69469353D01*
X63215360Y-69441496D01*
X63215000Y-69441387D01*
X63215000Y-69316040D01*
X66585756Y-65945284D01*
X66601974Y-65931974D01*
X66655084Y-65867260D01*
X66694548Y-65793427D01*
X66718850Y-65713314D01*
X66725000Y-65650874D01*
X66727056Y-65630000D01*
X66725000Y-65609126D01*
X66725000Y-65249574D01*
X66778394Y-65293393D01*
X66917372Y-65367679D01*
X67068173Y-65413424D01*
X67225000Y-65428870D01*
X67381826Y-65413424D01*
X67532627Y-65367679D01*
X67671605Y-65293393D01*
X67793422Y-65193422D01*
X67893393Y-65071606D01*
X67967679Y-64932628D01*
X68013424Y-64781827D01*
X68025000Y-64664293D01*
X68025000Y-64335708D01*
X68013424Y-64218174D01*
X67967679Y-64067372D01*
X67893393Y-63928394D01*
X67793422Y-63806578D01*
X67671606Y-63706607D01*
X67532628Y-63632321D01*
X67381827Y-63586576D01*
X67225000Y-63571130D01*
X67068174Y-63586576D01*
X66917373Y-63632321D01*
X66801451Y-63694283D01*
X66801451Y-63500000D01*
X66795659Y-63441190D01*
X66778504Y-63384640D01*
X66750647Y-63332523D01*
X66713158Y-63286842D01*
X66667477Y-63249353D01*
X66615360Y-63221496D01*
X66558810Y-63204341D01*
X66500000Y-63198549D01*
X66100000Y-63198549D01*
X66041190Y-63204341D01*
X65984640Y-63221496D01*
X65975000Y-63226649D01*
X65965360Y-63221496D01*
X65908810Y-63204341D01*
X65850000Y-63198549D01*
X65450000Y-63198549D01*
X65391190Y-63204341D01*
X65334640Y-63221496D01*
X65325000Y-63226649D01*
X65315360Y-63221496D01*
X65258810Y-63204341D01*
X65200000Y-63198549D01*
X64800000Y-63198549D01*
X64741190Y-63204341D01*
X64684640Y-63221496D01*
X64675000Y-63226649D01*
X64665360Y-63221496D01*
X64608810Y-63204341D01*
X64550000Y-63198549D01*
X64150000Y-63198549D01*
X64091190Y-63204341D01*
X64034640Y-63221496D01*
X63982523Y-63249353D01*
X63936842Y-63286842D01*
X63899353Y-63332523D01*
X63871496Y-63384640D01*
X63854341Y-63441190D01*
X63848549Y-63500000D01*
X63848549Y-64850000D01*
X63854341Y-64908810D01*
X63871496Y-64965360D01*
X63899353Y-65017477D01*
X63936842Y-65063158D01*
X63982523Y-65100647D01*
X64034640Y-65128504D01*
X64091190Y-65145659D01*
X64150000Y-65151451D01*
X64550000Y-65151451D01*
X64608810Y-65145659D01*
X64665360Y-65128504D01*
X64675000Y-65123351D01*
X64684640Y-65128504D01*
X64741190Y-65145659D01*
X64800000Y-65151451D01*
X65200000Y-65151451D01*
X65258810Y-65145659D01*
X65315360Y-65128504D01*
X65325000Y-65123351D01*
X65334640Y-65128504D01*
X65391190Y-65145659D01*
X65450000Y-65151451D01*
X65850000Y-65151451D01*
X65875001Y-65148989D01*
X65875001Y-65453959D01*
X62504244Y-68824716D01*
X62488026Y-68838026D01*
X62434916Y-68902741D01*
X62395452Y-68976574D01*
X62371150Y-69056687D01*
X62365000Y-69119127D01*
X62365000Y-69119133D01*
X62362945Y-69140000D01*
X62365000Y-69160867D01*
X62365000Y-69441387D01*
X62364640Y-69441496D01*
X62312523Y-69469353D01*
X62266842Y-69506842D01*
X62229353Y-69552523D01*
X62201496Y-69604640D01*
X62184341Y-69661190D01*
X62178549Y-69720000D01*
X62178549Y-70340000D01*
X62184341Y-70398810D01*
X62201496Y-70455360D01*
X62229353Y-70507477D01*
X62266842Y-70553158D01*
X62312523Y-70590647D01*
X62364640Y-70618504D01*
X62365001Y-70618613D01*
X62365000Y-70851387D01*
X62364640Y-70851496D01*
X62312523Y-70879353D01*
X62266842Y-70916842D01*
X62229353Y-70962523D01*
X62201496Y-71014640D01*
X62184341Y-71071190D01*
X62178549Y-71130000D01*
X62178549Y-71750000D01*
X62184341Y-71808810D01*
X62201496Y-71865360D01*
X62229353Y-71917477D01*
X62266842Y-71963158D01*
X62312523Y-72000647D01*
X62364640Y-72028504D01*
X62365001Y-72028613D01*
X62365000Y-72111387D01*
X62364640Y-72111496D01*
X62312523Y-72139353D01*
X62266842Y-72176842D01*
X62229353Y-72222523D01*
X62201496Y-72274640D01*
X62184341Y-72331190D01*
X62178549Y-72390000D01*
X62178549Y-72990000D01*
X62110000Y-72990000D01*
X61972777Y-73023223D01*
X61881131Y-73096043D01*
X61476465Y-73573549D01*
X61100000Y-73573549D01*
X61041190Y-73579341D01*
X60984640Y-73596496D01*
X60932523Y-73624353D01*
X60886842Y-73661842D01*
X60849353Y-73707523D01*
X60821496Y-73759640D01*
X60804341Y-73816190D01*
X60798549Y-73875000D01*
X59201451Y-73875000D01*
X59195659Y-73816190D01*
X59178504Y-73759640D01*
X59150647Y-73707523D01*
X59113158Y-73661842D01*
X59067477Y-73624353D01*
X59015360Y-73596496D01*
X58958810Y-73579341D01*
X58900000Y-73573549D01*
X58523535Y-73573549D01*
X58324523Y-73338715D01*
X58277988Y-73282012D01*
X58273002Y-73277920D01*
X58118869Y-73096043D01*
X58004805Y-73012836D01*
X57890000Y-72990000D01*
X57614717Y-72990000D01*
X57609640Y-72989500D01*
X56809656Y-72989500D01*
X56800000Y-72988549D01*
X56180000Y-72988549D01*
X56170344Y-72989500D01*
X55301451Y-72989500D01*
X55301451Y-72850000D01*
X55295659Y-72791190D01*
X55278504Y-72734640D01*
X55250647Y-72682523D01*
X55213158Y-72636842D01*
X55167477Y-72599353D01*
X55115360Y-72571496D01*
X55058810Y-72554341D01*
X55000000Y-72548549D01*
X50350000Y-72548549D01*
X50350000Y-72390000D01*
X59063549Y-72390000D01*
X59063549Y-72900000D01*
X59069341Y-72958810D01*
X59086496Y-73015360D01*
X59114353Y-73067477D01*
X59151842Y-73113158D01*
X59197523Y-73150647D01*
X59249640Y-73178504D01*
X59306190Y-73195659D01*
X59365000Y-73201451D01*
X59615000Y-73201451D01*
X59673810Y-73195659D01*
X59730360Y-73178504D01*
X59745000Y-73170679D01*
X59759640Y-73178504D01*
X59816190Y-73195659D01*
X59875000Y-73201451D01*
X60125000Y-73201451D01*
X60183810Y-73195659D01*
X60240360Y-73178504D01*
X60292477Y-73150647D01*
X60338158Y-73113158D01*
X60375647Y-73067477D01*
X60403504Y-73015360D01*
X60420659Y-72958810D01*
X60426451Y-72900000D01*
X60426451Y-72390000D01*
X60420659Y-72331190D01*
X60403504Y-72274640D01*
X60375647Y-72222523D01*
X60338158Y-72176842D01*
X60292477Y-72139353D01*
X60240360Y-72111496D01*
X60183810Y-72094341D01*
X60125000Y-72088549D01*
X59875000Y-72088549D01*
X59816190Y-72094341D01*
X59759640Y-72111496D01*
X59745000Y-72119321D01*
X59730360Y-72111496D01*
X59673810Y-72094341D01*
X59615000Y-72088549D01*
X59365000Y-72088549D01*
X59306190Y-72094341D01*
X59249640Y-72111496D01*
X59197523Y-72139353D01*
X59151842Y-72176842D01*
X59114353Y-72222523D01*
X59086496Y-72274640D01*
X59069341Y-72331190D01*
X59063549Y-72390000D01*
X50350000Y-72390000D01*
X50350000Y-64779855D01*
X50486959Y-65110504D01*
X50859048Y-65667374D01*
X51332626Y-66140952D01*
X51889496Y-66513041D01*
X52508257Y-66769340D01*
X53165129Y-66900000D01*
X53834871Y-66900000D01*
X54491743Y-66769340D01*
X55110504Y-66513041D01*
X55667374Y-66140952D01*
X56140952Y-65667374D01*
X56513041Y-65110504D01*
X56769340Y-64491743D01*
X56900000Y-63834871D01*
X56900000Y-63165129D01*
X56769340Y-62508257D01*
X56513041Y-61889496D01*
X56140952Y-61332626D01*
X55667374Y-60859048D01*
X55110504Y-60486959D01*
X54779855Y-60350000D01*
X60437527Y-60350000D01*
X60378395Y-60381607D01*
X60378395Y-60381607D01*
G37*
X60378395Y-60381607D02*
X60256579Y-60481578D01*
X60156608Y-60603394D01*
X60082322Y-60742372D01*
X60036577Y-60893173D01*
X60025000Y-61010707D01*
X60025000Y-61989292D01*
X60036576Y-62106826D01*
X60082321Y-62257627D01*
X60156607Y-62396605D01*
X60256578Y-62518422D01*
X60378394Y-62618393D01*
X60517372Y-62692679D01*
X60668173Y-62738424D01*
X60825000Y-62753870D01*
X60849561Y-62751451D01*
X62400000Y-62751451D01*
X62458810Y-62745659D01*
X62515360Y-62728504D01*
X62567477Y-62700647D01*
X62613158Y-62663158D01*
X62650647Y-62617477D01*
X62675000Y-62571916D01*
X62699353Y-62617477D01*
X62736842Y-62663158D01*
X62782523Y-62700647D01*
X62834640Y-62728504D01*
X62891190Y-62745659D01*
X62950000Y-62751451D01*
X64750000Y-62751451D01*
X64808810Y-62745659D01*
X64865360Y-62728504D01*
X64917477Y-62700647D01*
X64963158Y-62663158D01*
X65000000Y-62618265D01*
X65036842Y-62663158D01*
X65082523Y-62700647D01*
X65134640Y-62728504D01*
X65191190Y-62745659D01*
X65250000Y-62751451D01*
X67050000Y-62751451D01*
X67108810Y-62745659D01*
X67165360Y-62728504D01*
X67217477Y-62700647D01*
X67263158Y-62663158D01*
X67300647Y-62617477D01*
X67325000Y-62571916D01*
X67349353Y-62617477D01*
X67386842Y-62663158D01*
X67432523Y-62700647D01*
X67484640Y-62728504D01*
X67541190Y-62745659D01*
X67600000Y-62751451D01*
X69150439Y-62751451D01*
X69175000Y-62753870D01*
X69331826Y-62738424D01*
X69482627Y-62692679D01*
X69621605Y-62618393D01*
X69743422Y-62518422D01*
X69843393Y-62396606D01*
X69917679Y-62257628D01*
X69963424Y-62106827D01*
X69975000Y-61989293D01*
X69975000Y-61010707D01*
X69963424Y-60893173D01*
X69917679Y-60742372D01*
X69843393Y-60603394D01*
X69743422Y-60481578D01*
X69621606Y-60381607D01*
X69562474Y-60350000D01*
X75220145Y-60350000D01*
X74889496Y-60486959D01*
X74332626Y-60859048D01*
X73859048Y-61332626D01*
X73486959Y-61889496D01*
X73230660Y-62508257D01*
X73100000Y-63165129D01*
X73100000Y-63834871D01*
X73230660Y-64491743D01*
X73486959Y-65110504D01*
X73859048Y-65667374D01*
X74332626Y-66140952D01*
X74889496Y-66513041D01*
X75508257Y-66769340D01*
X76165129Y-66900000D01*
X76834871Y-66900000D01*
X77491743Y-66769340D01*
X78110504Y-66513041D01*
X78667374Y-66140952D01*
X79140952Y-65667374D01*
X79513041Y-65110504D01*
X79650000Y-64779855D01*
X79650001Y-72548549D01*
X75000000Y-72548549D01*
X74941190Y-72554341D01*
X74884640Y-72571496D01*
X74832523Y-72599353D01*
X74786842Y-72636842D01*
X74749353Y-72682523D01*
X74721496Y-72734640D01*
X74704341Y-72791190D01*
X74698549Y-72850000D01*
X74698549Y-72989500D01*
X72450360Y-72989500D01*
X72445283Y-72990000D01*
X72200000Y-72990000D01*
X72081782Y-73014274D01*
X71985265Y-73080503D01*
X71815418Y-73254596D01*
X71782012Y-73282012D01*
X71746738Y-73324993D01*
X71679854Y-73393549D01*
X70815000Y-73393549D01*
X70756190Y-73399341D01*
X70699640Y-73416496D01*
X70647523Y-73444353D01*
X70601842Y-73481842D01*
X70564353Y-73527523D01*
X70536496Y-73579640D01*
X70519341Y-73636190D01*
X70513549Y-73695000D01*
X70513549Y-74305000D01*
X70519341Y-74363810D01*
X70536496Y-74420360D01*
X70564353Y-74472477D01*
X70601842Y-74518158D01*
X70647523Y-74555647D01*
X70699640Y-74583504D01*
X70756190Y-74600659D01*
X70815000Y-74606451D01*
X71679854Y-74606451D01*
X71746738Y-74675007D01*
X71782012Y-74717988D01*
X71815418Y-74745404D01*
X71985265Y-74919497D01*
X72085195Y-74987164D01*
X72200000Y-75010000D01*
X72445283Y-75010000D01*
X72450360Y-75010500D01*
X74698549Y-75010500D01*
X74698549Y-75150000D01*
X74704341Y-75208810D01*
X74721496Y-75265360D01*
X74749353Y-75317477D01*
X74786842Y-75363158D01*
X74832523Y-75400647D01*
X74884640Y-75428504D01*
X74941190Y-75445659D01*
X75000000Y-75451451D01*
X79650001Y-75451451D01*
X79650001Y-79650000D01*
X50350000Y-79650000D01*
X50350000Y-75451451D01*
X55000000Y-75451451D01*
X55058810Y-75445659D01*
X55115360Y-75428504D01*
X55167477Y-75400647D01*
X55213158Y-75363158D01*
X55250647Y-75317477D01*
X55278504Y-75265360D01*
X55295659Y-75208810D01*
X55301451Y-75150000D01*
X55301451Y-75010500D01*
X57609640Y-75010500D01*
X57614717Y-75010000D01*
X57890000Y-75010000D01*
X58027223Y-74976777D01*
X58118869Y-74903957D01*
X58273002Y-74722080D01*
X58277988Y-74717988D01*
X58324523Y-74661285D01*
X58523535Y-74426451D01*
X58900000Y-74426451D01*
X58958810Y-74420659D01*
X59015360Y-74403504D01*
X59067477Y-74375647D01*
X59113158Y-74338158D01*
X59150647Y-74292477D01*
X59178504Y-74240360D01*
X59195659Y-74183810D01*
X59201451Y-74125000D01*
X59201451Y-73875000D01*
X60798549Y-73875000D01*
X60798549Y-74125000D01*
X60804341Y-74183810D01*
X60821496Y-74240360D01*
X60849353Y-74292477D01*
X60886842Y-74338158D01*
X60932523Y-74375647D01*
X60984640Y-74403504D01*
X61041190Y-74420659D01*
X61100000Y-74426451D01*
X61476465Y-74426451D01*
X61881131Y-74903957D01*
X61995195Y-74987164D01*
X62110000Y-75010000D01*
X62415784Y-75010000D01*
X62420861Y-75010500D01*
X64428798Y-75010500D01*
X64430000Y-75010739D01*
X64800000Y-75010739D01*
X64925558Y-74983200D01*
X65020267Y-74914411D01*
X65182707Y-74738736D01*
X65207988Y-74717988D01*
X65256107Y-74659355D01*
X65300402Y-74611451D01*
X65760000Y-74611451D01*
X65818810Y-74605659D01*
X65875360Y-74588504D01*
X65900000Y-74575334D01*
X65924640Y-74588504D01*
X65981190Y-74605659D01*
X66040000Y-74611451D01*
X66660000Y-74611451D01*
X66718810Y-74605659D01*
X66737464Y-74600000D01*
X67134018Y-74600000D01*
X67136190Y-74600659D01*
X67195000Y-74606451D01*
X68185000Y-74606451D01*
X68243810Y-74600659D01*
X68300360Y-74583504D01*
X68352477Y-74555647D01*
X68398158Y-74518158D01*
X68435647Y-74472477D01*
X68463504Y-74420360D01*
X68480659Y-74363810D01*
X68486451Y-74305000D01*
X68486451Y-73695000D01*
X68480659Y-73636190D01*
X68463504Y-73579640D01*
X68435647Y-73527523D01*
X68398158Y-73481842D01*
X68352477Y-73444353D01*
X68300360Y-73416496D01*
X68243810Y-73399341D01*
X68185000Y-73393549D01*
X67195000Y-73393549D01*
X67136190Y-73399341D01*
X67134018Y-73400000D01*
X66737464Y-73400000D01*
X66718810Y-73394341D01*
X66660000Y-73388549D01*
X66040000Y-73388549D01*
X65981190Y-73394341D01*
X65924640Y-73411496D01*
X65900000Y-73424666D01*
X65875360Y-73411496D01*
X65818810Y-73394341D01*
X65760000Y-73388549D01*
X65299801Y-73388549D01*
X65261677Y-73347432D01*
X65207988Y-73282012D01*
X65178842Y-73258092D01*
X65019989Y-73086766D01*
X64914805Y-73013575D01*
X64800000Y-72990739D01*
X64552220Y-72990739D01*
X64539640Y-72989500D01*
X63401451Y-72989500D01*
X63401451Y-72390000D01*
X63395659Y-72331190D01*
X63378504Y-72274640D01*
X63350647Y-72222523D01*
X63313158Y-72176842D01*
X63267477Y-72139353D01*
X63215360Y-72111496D01*
X63215000Y-72111387D01*
X63215000Y-72028613D01*
X63215360Y-72028504D01*
X63267477Y-72000647D01*
X63313158Y-71963158D01*
X63350647Y-71917477D01*
X63378504Y-71865360D01*
X63395659Y-71808810D01*
X63401451Y-71750000D01*
X63401451Y-71130000D01*
X63395659Y-71071190D01*
X63378504Y-71014640D01*
X63350647Y-70962523D01*
X63313158Y-70916842D01*
X63267477Y-70879353D01*
X63215360Y-70851496D01*
X63215000Y-70851387D01*
X63215000Y-70618613D01*
X63215360Y-70618504D01*
X63267477Y-70590647D01*
X63313158Y-70553158D01*
X63350647Y-70507477D01*
X63378504Y-70455360D01*
X63395659Y-70398810D01*
X63401451Y-70340000D01*
X63401451Y-69720000D01*
X63395659Y-69661190D01*
X63378504Y-69604640D01*
X63350647Y-69552523D01*
X63313158Y-69506842D01*
X63267477Y-69469353D01*
X63215360Y-69441496D01*
X63215000Y-69441387D01*
X63215000Y-69316040D01*
X66585756Y-65945284D01*
X66601974Y-65931974D01*
X66655084Y-65867260D01*
X66694548Y-65793427D01*
X66718850Y-65713314D01*
X66725000Y-65650874D01*
X66727056Y-65630000D01*
X66725000Y-65609126D01*
X66725000Y-65249574D01*
X66778394Y-65293393D01*
X66917372Y-65367679D01*
X67068173Y-65413424D01*
X67225000Y-65428870D01*
X67381826Y-65413424D01*
X67532627Y-65367679D01*
X67671605Y-65293393D01*
X67793422Y-65193422D01*
X67893393Y-65071606D01*
X67967679Y-64932628D01*
X68013424Y-64781827D01*
X68025000Y-64664293D01*
X68025000Y-64335708D01*
X68013424Y-64218174D01*
X67967679Y-64067372D01*
X67893393Y-63928394D01*
X67793422Y-63806578D01*
X67671606Y-63706607D01*
X67532628Y-63632321D01*
X67381827Y-63586576D01*
X67225000Y-63571130D01*
X67068174Y-63586576D01*
X66917373Y-63632321D01*
X66801451Y-63694283D01*
X66801451Y-63500000D01*
X66795659Y-63441190D01*
X66778504Y-63384640D01*
X66750647Y-63332523D01*
X66713158Y-63286842D01*
X66667477Y-63249353D01*
X66615360Y-63221496D01*
X66558810Y-63204341D01*
X66500000Y-63198549D01*
X66100000Y-63198549D01*
X66041190Y-63204341D01*
X65984640Y-63221496D01*
X65975000Y-63226649D01*
X65965360Y-63221496D01*
X65908810Y-63204341D01*
X65850000Y-63198549D01*
X65450000Y-63198549D01*
X65391190Y-63204341D01*
X65334640Y-63221496D01*
X65325000Y-63226649D01*
X65315360Y-63221496D01*
X65258810Y-63204341D01*
X65200000Y-63198549D01*
X64800000Y-63198549D01*
X64741190Y-63204341D01*
X64684640Y-63221496D01*
X64675000Y-63226649D01*
X64665360Y-63221496D01*
X64608810Y-63204341D01*
X64550000Y-63198549D01*
X64150000Y-63198549D01*
X64091190Y-63204341D01*
X64034640Y-63221496D01*
X63982523Y-63249353D01*
X63936842Y-63286842D01*
X63899353Y-63332523D01*
X63871496Y-63384640D01*
X63854341Y-63441190D01*
X63848549Y-63500000D01*
X63848549Y-64850000D01*
X63854341Y-64908810D01*
X63871496Y-64965360D01*
X63899353Y-65017477D01*
X63936842Y-65063158D01*
X63982523Y-65100647D01*
X64034640Y-65128504D01*
X64091190Y-65145659D01*
X64150000Y-65151451D01*
X64550000Y-65151451D01*
X64608810Y-65145659D01*
X64665360Y-65128504D01*
X64675000Y-65123351D01*
X64684640Y-65128504D01*
X64741190Y-65145659D01*
X64800000Y-65151451D01*
X65200000Y-65151451D01*
X65258810Y-65145659D01*
X65315360Y-65128504D01*
X65325000Y-65123351D01*
X65334640Y-65128504D01*
X65391190Y-65145659D01*
X65450000Y-65151451D01*
X65850000Y-65151451D01*
X65875001Y-65148989D01*
X65875001Y-65453959D01*
X62504244Y-68824716D01*
X62488026Y-68838026D01*
X62434916Y-68902741D01*
X62395452Y-68976574D01*
X62371150Y-69056687D01*
X62365000Y-69119127D01*
X62365000Y-69119133D01*
X62362945Y-69140000D01*
X62365000Y-69160867D01*
X62365000Y-69441387D01*
X62364640Y-69441496D01*
X62312523Y-69469353D01*
X62266842Y-69506842D01*
X62229353Y-69552523D01*
X62201496Y-69604640D01*
X62184341Y-69661190D01*
X62178549Y-69720000D01*
X62178549Y-70340000D01*
X62184341Y-70398810D01*
X62201496Y-70455360D01*
X62229353Y-70507477D01*
X62266842Y-70553158D01*
X62312523Y-70590647D01*
X62364640Y-70618504D01*
X62365001Y-70618613D01*
X62365000Y-70851387D01*
X62364640Y-70851496D01*
X62312523Y-70879353D01*
X62266842Y-70916842D01*
X62229353Y-70962523D01*
X62201496Y-71014640D01*
X62184341Y-71071190D01*
X62178549Y-71130000D01*
X62178549Y-71750000D01*
X62184341Y-71808810D01*
X62201496Y-71865360D01*
X62229353Y-71917477D01*
X62266842Y-71963158D01*
X62312523Y-72000647D01*
X62364640Y-72028504D01*
X62365001Y-72028613D01*
X62365000Y-72111387D01*
X62364640Y-72111496D01*
X62312523Y-72139353D01*
X62266842Y-72176842D01*
X62229353Y-72222523D01*
X62201496Y-72274640D01*
X62184341Y-72331190D01*
X62178549Y-72390000D01*
X62178549Y-72990000D01*
X62110000Y-72990000D01*
X61972777Y-73023223D01*
X61881131Y-73096043D01*
X61476465Y-73573549D01*
X61100000Y-73573549D01*
X61041190Y-73579341D01*
X60984640Y-73596496D01*
X60932523Y-73624353D01*
X60886842Y-73661842D01*
X60849353Y-73707523D01*
X60821496Y-73759640D01*
X60804341Y-73816190D01*
X60798549Y-73875000D01*
X59201451Y-73875000D01*
X59195659Y-73816190D01*
X59178504Y-73759640D01*
X59150647Y-73707523D01*
X59113158Y-73661842D01*
X59067477Y-73624353D01*
X59015360Y-73596496D01*
X58958810Y-73579341D01*
X58900000Y-73573549D01*
X58523535Y-73573549D01*
X58324523Y-73338715D01*
X58277988Y-73282012D01*
X58273002Y-73277920D01*
X58118869Y-73096043D01*
X58004805Y-73012836D01*
X57890000Y-72990000D01*
X57614717Y-72990000D01*
X57609640Y-72989500D01*
X56809656Y-72989500D01*
X56800000Y-72988549D01*
X56180000Y-72988549D01*
X56170344Y-72989500D01*
X55301451Y-72989500D01*
X55301451Y-72850000D01*
X55295659Y-72791190D01*
X55278504Y-72734640D01*
X55250647Y-72682523D01*
X55213158Y-72636842D01*
X55167477Y-72599353D01*
X55115360Y-72571496D01*
X55058810Y-72554341D01*
X55000000Y-72548549D01*
X50350000Y-72548549D01*
X50350000Y-72390000D01*
X59063549Y-72390000D01*
X59063549Y-72900000D01*
X59069341Y-72958810D01*
X59086496Y-73015360D01*
X59114353Y-73067477D01*
X59151842Y-73113158D01*
X59197523Y-73150647D01*
X59249640Y-73178504D01*
X59306190Y-73195659D01*
X59365000Y-73201451D01*
X59615000Y-73201451D01*
X59673810Y-73195659D01*
X59730360Y-73178504D01*
X59745000Y-73170679D01*
X59759640Y-73178504D01*
X59816190Y-73195659D01*
X59875000Y-73201451D01*
X60125000Y-73201451D01*
X60183810Y-73195659D01*
X60240360Y-73178504D01*
X60292477Y-73150647D01*
X60338158Y-73113158D01*
X60375647Y-73067477D01*
X60403504Y-73015360D01*
X60420659Y-72958810D01*
X60426451Y-72900000D01*
X60426451Y-72390000D01*
X60420659Y-72331190D01*
X60403504Y-72274640D01*
X60375647Y-72222523D01*
X60338158Y-72176842D01*
X60292477Y-72139353D01*
X60240360Y-72111496D01*
X60183810Y-72094341D01*
X60125000Y-72088549D01*
X59875000Y-72088549D01*
X59816190Y-72094341D01*
X59759640Y-72111496D01*
X59745000Y-72119321D01*
X59730360Y-72111496D01*
X59673810Y-72094341D01*
X59615000Y-72088549D01*
X59365000Y-72088549D01*
X59306190Y-72094341D01*
X59249640Y-72111496D01*
X59197523Y-72139353D01*
X59151842Y-72176842D01*
X59114353Y-72222523D01*
X59086496Y-72274640D01*
X59069341Y-72331190D01*
X59063549Y-72390000D01*
X50350000Y-72390000D01*
X50350000Y-64779855D01*
X50486959Y-65110504D01*
X50859048Y-65667374D01*
X51332626Y-66140952D01*
X51889496Y-66513041D01*
X52508257Y-66769340D01*
X53165129Y-66900000D01*
X53834871Y-66900000D01*
X54491743Y-66769340D01*
X55110504Y-66513041D01*
X55667374Y-66140952D01*
X56140952Y-65667374D01*
X56513041Y-65110504D01*
X56769340Y-64491743D01*
X56900000Y-63834871D01*
X56900000Y-63165129D01*
X56769340Y-62508257D01*
X56513041Y-61889496D01*
X56140952Y-61332626D01*
X55667374Y-60859048D01*
X55110504Y-60486959D01*
X54779855Y-60350000D01*
X60437527Y-60350000D01*
X60378395Y-60381607D01*
G04 #@! TD*
M02*
