G04 #@! TF.GenerationSoftware,KiCad,Pcbnew,5.0.1-33cea8e~68~ubuntu16.04.1*
G04 #@! TF.CreationDate,2018-11-05T22:20:25+00:00*
G04 #@! TF.ProjectId,pa,70612E6B696361645F70636200000000,rev?*
G04 #@! TF.SameCoordinates,Original*
G04 #@! TF.FileFunction,Soldermask,Bot*
G04 #@! TF.FilePolarity,Negative*
%FSLAX46Y46*%
G04 Gerber Fmt 4.6, Leading zero omitted, Abs format (unit mm)*
G04 Created by KiCad (PCBNEW 5.0.1-33cea8e~68~ubuntu16.04.1) date Mon 05 Nov 2018 10:20:25 PM GMT*
%MOMM*%
%LPD*%
G01*
G04 APERTURE LIST*
%ADD10C,0.100000*%
G04 APERTURE END LIST*
D10*
G36*
X55200000Y-89875000D02*
X50200000Y-89875000D01*
X50200000Y-87475000D01*
X55200000Y-87475000D01*
X55200000Y-89875000D01*
X55200000Y-89875000D01*
G37*
G36*
X79800000Y-89875000D02*
X74800000Y-89875000D01*
X74800000Y-87475000D01*
X79800000Y-87475000D01*
X79800000Y-89875000D01*
X79800000Y-89875000D01*
G37*
G36*
X79800000Y-81125000D02*
X74800000Y-81125000D01*
X74800000Y-78725000D01*
X79800000Y-78725000D01*
X79800000Y-81125000D01*
X79800000Y-81125000D01*
G37*
G36*
X55200000Y-81125000D02*
X50200000Y-81125000D01*
X50200000Y-78725000D01*
X55200000Y-78725000D01*
X55200000Y-81125000D01*
X55200000Y-81125000D01*
G37*
G36*
X76896849Y-70367226D02*
X77418821Y-70471052D01*
X77992085Y-70708506D01*
X78508008Y-71053235D01*
X78946765Y-71491992D01*
X79291494Y-72007915D01*
X79528948Y-72581179D01*
X79650000Y-73189752D01*
X79650000Y-73810248D01*
X79528948Y-74418821D01*
X79291494Y-74992085D01*
X78946765Y-75508008D01*
X78508008Y-75946765D01*
X77992085Y-76291494D01*
X77418821Y-76528948D01*
X76896849Y-76632774D01*
X76810249Y-76650000D01*
X76189751Y-76650000D01*
X76103151Y-76632774D01*
X75581179Y-76528948D01*
X75007915Y-76291494D01*
X74491992Y-75946765D01*
X74053235Y-75508008D01*
X73708506Y-74992085D01*
X73471052Y-74418821D01*
X73350000Y-73810248D01*
X73350000Y-73189752D01*
X73471052Y-72581179D01*
X73708506Y-72007915D01*
X74053235Y-71491992D01*
X74491992Y-71053235D01*
X75007915Y-70708506D01*
X75581179Y-70471052D01*
X76103151Y-70367226D01*
X76189751Y-70350000D01*
X76810249Y-70350000D01*
X76896849Y-70367226D01*
X76896849Y-70367226D01*
G37*
G36*
X53896849Y-70367226D02*
X54418821Y-70471052D01*
X54992085Y-70708506D01*
X55508008Y-71053235D01*
X55946765Y-71491992D01*
X56291494Y-72007915D01*
X56528948Y-72581179D01*
X56650000Y-73189752D01*
X56650000Y-73810248D01*
X56528948Y-74418821D01*
X56291494Y-74992085D01*
X55946765Y-75508008D01*
X55508008Y-75946765D01*
X54992085Y-76291494D01*
X54418821Y-76528948D01*
X53896849Y-76632774D01*
X53810249Y-76650000D01*
X53189751Y-76650000D01*
X53103151Y-76632774D01*
X52581179Y-76528948D01*
X52007915Y-76291494D01*
X51491992Y-75946765D01*
X51053235Y-75508008D01*
X50708506Y-74992085D01*
X50471052Y-74418821D01*
X50350000Y-73810248D01*
X50350000Y-73189752D01*
X50471052Y-72581179D01*
X50708506Y-72007915D01*
X51053235Y-71491992D01*
X51491992Y-71053235D01*
X52007915Y-70708506D01*
X52581179Y-70471052D01*
X53103151Y-70367226D01*
X53189751Y-70350000D01*
X53810249Y-70350000D01*
X53896849Y-70367226D01*
X53896849Y-70367226D01*
G37*
G36*
X64233352Y-73230743D02*
X64378941Y-73291048D01*
X64509973Y-73378601D01*
X64621399Y-73490027D01*
X64708952Y-73621059D01*
X64769257Y-73766648D01*
X64800000Y-73921205D01*
X64800000Y-74078795D01*
X64769257Y-74233352D01*
X64708952Y-74378941D01*
X64621399Y-74509973D01*
X64509973Y-74621399D01*
X64378941Y-74708952D01*
X64233352Y-74769257D01*
X64078795Y-74800000D01*
X63921205Y-74800000D01*
X63766648Y-74769257D01*
X63621059Y-74708952D01*
X63490027Y-74621399D01*
X63378601Y-74509973D01*
X63291048Y-74378941D01*
X63230743Y-74233352D01*
X63200000Y-74078795D01*
X63200000Y-73921205D01*
X63230743Y-73766648D01*
X63291048Y-73621059D01*
X63378601Y-73490027D01*
X63490027Y-73378601D01*
X63621059Y-73291048D01*
X63766648Y-73230743D01*
X63921205Y-73200000D01*
X64078795Y-73200000D01*
X64233352Y-73230743D01*
X64233352Y-73230743D01*
G37*
G36*
X66233352Y-73230743D02*
X66378941Y-73291048D01*
X66509973Y-73378601D01*
X66621399Y-73490027D01*
X66708952Y-73621059D01*
X66769257Y-73766648D01*
X66800000Y-73921205D01*
X66800000Y-74078795D01*
X66769257Y-74233352D01*
X66708952Y-74378941D01*
X66621399Y-74509973D01*
X66509973Y-74621399D01*
X66378941Y-74708952D01*
X66233352Y-74769257D01*
X66078795Y-74800000D01*
X65921205Y-74800000D01*
X65766648Y-74769257D01*
X65621059Y-74708952D01*
X65490027Y-74621399D01*
X65378601Y-74509973D01*
X65291048Y-74378941D01*
X65230743Y-74233352D01*
X65200000Y-74078795D01*
X65200000Y-73921205D01*
X65230743Y-73766648D01*
X65291048Y-73621059D01*
X65378601Y-73490027D01*
X65490027Y-73378601D01*
X65621059Y-73291048D01*
X65766648Y-73230743D01*
X65921205Y-73200000D01*
X66078795Y-73200000D01*
X66233352Y-73230743D01*
X66233352Y-73230743D01*
G37*
G36*
X67675012Y-71723057D02*
X67784207Y-71768287D01*
X67882481Y-71833952D01*
X67966048Y-71917519D01*
X68031713Y-72015793D01*
X68076943Y-72124988D01*
X68100000Y-72240904D01*
X68100000Y-72359096D01*
X68076943Y-72475012D01*
X68031713Y-72584207D01*
X67966048Y-72682481D01*
X67882481Y-72766048D01*
X67784207Y-72831713D01*
X67675012Y-72876943D01*
X67559096Y-72900000D01*
X67440904Y-72900000D01*
X67324988Y-72876943D01*
X67215793Y-72831713D01*
X67117519Y-72766048D01*
X67033952Y-72682481D01*
X66968287Y-72584207D01*
X66923057Y-72475012D01*
X66900000Y-72359096D01*
X66900000Y-72240904D01*
X66923057Y-72124988D01*
X66968287Y-72015793D01*
X67033952Y-71917519D01*
X67117519Y-71833952D01*
X67215793Y-71768287D01*
X67324988Y-71723057D01*
X67440904Y-71700000D01*
X67559096Y-71700000D01*
X67675012Y-71723057D01*
X67675012Y-71723057D01*
G37*
M02*
