M48
;DRILL file {KiCad 5.0.1-33cea8e~68~ubuntu16.04.1} date Mon 05 Nov 2018 10:20:31 PM GMT
;FORMAT={-:-/ absolute / inch / decimal}
FMAT,2
INCH,TZ
T1C0.0157
T2C0.0315
%
G90
G05
M72
T1
X2.0157Y-3.2362
X2.0157Y-3.4016
X2.0787Y-3.2362
X2.0787Y-3.4016
X2.1417Y-3.2362
X2.1417Y-3.4016
X2.2205Y-3.2677
X2.2205Y-3.3701
X2.3071Y-3.2126
X2.3071Y-3.4724
X2.3622Y-3.2126
X2.3622Y-3.4724
X2.3701Y-3.2913
X2.3701Y-3.3465
X2.3701Y-3.4016
X2.4173Y-3.2126
X2.4173Y-3.2913
X2.4173Y-3.3465
X2.4173Y-3.4016
X2.4173Y-3.4724
X2.4488Y-2.9134
X2.4646Y-2.8583
X2.4646Y-2.9685
X2.4646Y-3.2913
X2.4646Y-3.3465
X2.4646Y-3.4016
X2.4724Y-3.2126
X2.4724Y-3.4724
X2.5197Y-2.8425
X2.5197Y-2.9843
X2.5276Y-3.2126
X2.5276Y-3.4724
X2.6142Y-3.252
X2.6142Y-3.378
X2.6772Y-3.252
X2.6772Y-3.378
X2.7402Y-3.252
X2.7402Y-3.378
X2.7953Y-3.252
X2.7953Y-3.378
X2.8661Y-3.2677
X2.8661Y-3.3701
X2.9764Y-3.2362
X2.9764Y-3.4016
X3.0394Y-3.2362
X3.0394Y-3.4016
X3.0945Y-3.2362
X3.0945Y-3.4016
T2
X2.5197Y-2.9134
X2.5984Y-2.9134
T0
M30
